# xmcd
#
# Track frame offsets:
#	150
#	28902
#	56225
#	85215
#	105255
#	129282
#	153607
#	184390
#	207527
#	234962
#	250040
#
# Disc length: 3631 seconds
#
# Revision: 1
# Processed by: cddbd v1.5.2PL0 Copyright (c) Steve Scherf et al.
# Submitted via: EasyCDDAExtractor 6.2.0.3
#
DISCID=920e2d0b
DTITLE=Gio Fuertisimo - Live II
DYEAR=1997
DGENRE=Acapella
TTITLE0=Ba Ninga Mi Jambo
TTITLE1=Kaiman Djuku
TTITLE2=Dal Pega
TTITLE3=Subi Bora
TTITLE4=Bi Numa
TTITLE5=Mekaniko
TTITLE6=Sakudi
TTITLE7=Pordonami
TTITLE8=Ba shuata
TTITLE9=Aloha
TTITLE10=Mama lu
EXTD=
EXTT0=
EXTT1=
EXTT2=
EXTT3=
EXTT4=
EXTT5=
EXTT6=
EXTT7=
EXTT8=
EXTT9=
EXTT10=
PLAYORDER=
